# Blender v2.92.0 OBJ File: '20facestar.blend'
# www.blender.org
mtllib ./star_block.mtl
o Mesh_Mesh.015
v 0.657647 0.448777 0.500000
v 0.500000 0.334240 0.500000
v 0.342353 0.448777 0.500000
v 0.402569 0.634103 0.500000
v 0.597432 0.634103 0.500000
v 0.500001 0.934094 0.500000
v 0.087152 0.634143 0.500000
v 0.244845 0.148811 0.500000
v 0.755154 0.148810 0.500000
v 0.912848 0.634143 0.500000
v 0.477421 0.504615 0.618078
v 0.496864 0.508242 0.393775
vn 0.6924 -0.2249 -0.6856
vn -0.0001 -0.6738 -0.7389
vn 0.4043 0.5566 -0.7257
vn 0.6924 -0.2251 -0.6856
vn -0.3620 0.4981 -0.7879
vn 0.4045 0.5566 -0.7257
vn -0.5783 -0.1880 -0.7938
vn -0.3619 0.4982 -0.7879
vn 0.0001 -0.6738 -0.7389
vn -0.5784 -0.1878 -0.7938
vn -0.5894 -0.1914 0.7848
vn 0.0001 -0.6450 0.7642
vn -0.3511 0.4833 0.8020
vn -0.5894 -0.1916 0.7848
vn 0.3571 0.4914 0.7944
vn -0.3512 0.4833 0.8020
vn 0.6058 -0.1969 0.7709
vn 0.3570 0.4915 0.7944
vn -0.0001 -0.6450 0.7642
vn 0.6058 -0.1968 0.7709
usemtl Material.001
s off
f 4//1 6//1 11//1
f 4//2 11//2 7//2
f 3//3 7//3 11//3
f 3//4 11//4 8//4
f 2//5 8//5 11//5
f 2//6 11//6 9//6
f 1//7 9//7 11//7
f 1//8 11//8 10//8
f 5//9 10//9 11//9
f 5//10 11//10 6//10
f 5//11 6//11 12//11
f 5//12 12//12 10//12
f 1//13 10//13 12//13
f 1//14 12//14 9//14
f 2//15 9//15 12//15
f 2//16 12//16 8//16
f 3//17 8//17 12//17
f 3//18 12//18 7//18
f 4//19 7//19 12//19
f 4//20 12//20 6//20
